<!-- Generator: Adobe Illustrator 18.1.0, SVG Export Plug-In  -->
<svg version="1.1"
	 xmlns="http://www.w3.org/2000/svg" xmlns:xlink="http://www.w3.org/1999/xlink" xmlns:a="http://ns.adobe.com/AdobeSVGViewerExtensions/3.0/"
	 x="0px" y="0px" width="593.771px" height="126.79px" viewBox="0 0 593.771 126.79" enable-background="new 0 0 593.771 126.79"
	 xml:space="preserve">
<defs>
</defs>
<g>
	<path fill="#002247" d="M3.123,18.094c0-0.104,0.031-0.207,0.09-0.293c4.181-6.146,11.654-8.513,19.285-8.513
		c7.045,0,14.411,2.242,19.695,5.604c6.885,4.483,12.649,11.048,13.77,18.253c2.069,15.516-6.636,21.622-13.906,25.366
		c-0.47,0.242-0.311,0.952,0.217,0.973c7.752,0.316,17.554,0.872,25.057,4.403c11.368,5.124,12.489,15.211,10.728,26.259
		c-2.882,18.414-17.453,24.338-36.667,28.501c-11.849,2.402-19.694,1.922-25.299-1.601C8.407,111.763,5.365,98.954,3.763,87.265
		c-0.961-7.846-2.722-22.256-3.363-36.027C-0.393,36.955-0.242,23.3,3.035,18.383c0.057-0.085,0.088-0.183,0.088-0.286V18.094z"/>
	<path fill="#002247" d="M206.058,60.205c-0.16,15.852,2.758,58.443-18.057,59.884c-19.534,1.601-18.057-42.271-19.178-55.081
		c-1.921-20.495-0.896-53.281,17.577-55.401c20.451-2.346,19.978,33.144,19.658,50.757V60.205z"/>
	<path fill="#002247" d="M316.106,120.249c-8.166,0.32-11.368-9.607-12.649-21.456c-1.1-10.867-0.665-23.153-0.926-30.054
		c-0.063-1.675-1.141-3.133-2.712-3.717c-4.144-1.54-8.025-4.318-8.691-8.981c-0.768-5.25,2.867-8.554,6.974-9.422
		c1.865-0.394,3.182-2.075,3.193-3.981c0.04-6.972-0.387-14.066,0.561-20.703c1.921-14.411,6.725-20.015,18.734-21.616
		c12.169-1.761,24.338,3.683,17.933,17.453c-2.978,6.287-8.084,6.648-12.124,5.792c-2.55-0.54-4.978,1.331-5.11,3.934
		c-0.243,4.816,0.134,9.93,0.732,14.724c0.25,2.003,2.013,3.459,4.029,3.354c3.29-0.17,6.563,0.307,7.029,6.141
		c0.751,7.761-2.902,10.336-6.674,11.778c-1.852,0.708-3.022,2.54-2.84,4.514c0.594,6.449,1.989,17.924,1.989,28.541
		c-0.16,12.649-2.241,23.858-9.607,24.018L316.106,120.249z"/>
	<path fill="#002247" d="M441.568,120.249c-8.166,0.32-11.368-9.607-12.649-21.456c-1.255-12.396-0.512-26.637-1.084-32.627
		c-0.021-0.215-0.172-0.391-0.38-0.448c-4.869-1.324-10.083-4.201-10.865-9.676c-0.929-6.346,4.576-9.849,9.572-9.642
		c0.285,0.012,0.526-0.211,0.535-0.496c0.267-8.002-0.475-16.291,0.621-23.967c1.921-14.411,6.725-20.015,18.734-21.616
		c12.169-1.761,24.338,3.683,17.933,17.453c-4.098,8.65-12.223,6.081-16.059,4.562c-0.306-0.121-0.647,0.071-0.698,0.396
		c-1.107,7.085-0.375,15.405,0.679,22.613c0.038,0.261,0.267,0.449,0.531,0.44c3.981-0.135,9.487-1.769,10.103,5.933
		c0.934,9.653-4.945,11.282-9.392,12.69c-0.223,0.071-0.37,0.281-0.359,0.515c0.251,5.151,2.225,18.997,2.225,31.629
		c-0.16,12.649-2.241,23.858-9.607,24.018L441.568,120.249z"/>
	<path fill="#002247" d="M566.984,46.724c0.084-0.084,0.193-0.136,0.31-0.149c10.222-1.093,23.347-0.39,21.755,11.548
		c-1.441,10.087-24.338,4.003-22.897,12.809c0.961,5.604,24.978,2.242,22.577,25.299c-1.281,13.29-16.012,23.537-28.181,24.498
		c-6.885,0.801-17.453-2.722-17.933-10.568c-1.121-19.534,25.299-9.767,25.138-15.371c-0.32-9.447-28.021,1.601-24.178-26.099
		c1.913-12.276,9.382-20.108,23.04-21.755c0.114-0.014,0.221-0.065,0.302-0.146L566.984,46.724z"/>
	<circle fill="#F1AD00" cx="122.904" cy="79.161" r="47.629"/>
	<circle fill="#FF8D9E" cx="251.44" cy="79.161" r="47.629"/>
	<circle fill="#0098FF" cx="373.51" cy="79.161" r="47.629"/>
	<circle fill="#6E0AAF" cx="499.913" cy="79.161" r="47.629"/>
	<g>
		<path fill="#722E00" d="M552.67,16.325c0.526,0.362,1.301-0.034,1.311-0.671c0.036-2.324-0.336-6.835-3.539-5.613
			C546.593,11.51,550.712,14.976,552.67,16.325z"/>
		<path fill="#722E00" d="M578.884,16.325c-0.526,0.362-1.301-0.034-1.311-0.671c-0.036-2.324,0.336-6.835,3.539-5.613
			C584.962,11.51,580.843,14.976,578.884,16.325z"/>
		<path fill="#722E00" d="M587.834,31.425c0,12.072-9.786,20.788-21.858,20.788s-21.858-8.716-21.858-20.788
			s9.786-22.928,21.858-22.928S587.834,19.353,587.834,31.425z"/>
		<path fill="#F1AD00" d="M585.662,31.083c0.155,10.693-8.419,19.487-19.15,19.642c-10.731,0.155-19.555-8.387-19.71-19.08
			c-0.033-2.286,0.333-4.484,1.033-6.53c0.003-0.008,0.007-0.015,0.013-0.022c8.05-9.224,17.031,0.926,18.07,2.164
			c0,0,0,0.001,0.001,0.001c0.026,0.032,0.075,0.031,0.1-0.002c0,0,0-0.001,0.001-0.001c1.03-1.304,10.172-12.255,18.688-1.897
			c0.005,0.006,0.009,0.013,0.012,0.021C585.304,27.179,585.633,29.093,585.662,31.083z"/>
		<path fill="none" stroke="#7A7A7A" stroke-width="0.6448" stroke-linecap="round" stroke-miterlimit="10" d="M557.978,36.823"/>
		<path fill="none" stroke="#7A7A7A" stroke-width="0.3574" stroke-linecap="round" stroke-miterlimit="10" d="M556.968,39.468"/>
		<ellipse fill="#FFFFFF" cx="575.192" cy="31.51" rx="6.73" ry="6.927"/>
		<ellipse fill="#FFFFFF" cx="556.646" cy="31.51" rx="6.73" ry="6.927"/>
		<g>
			<circle fill="#FFBE00" cx="574.646" cy="31.426" r="5.944"/>
			<circle cx="574.646" cy="31.426" r="5.204"/>
		</g>
		<circle fill="#FFBE00" cx="557.125" cy="31.426" r="5.944"/>
		<circle cx="557.125" cy="31.426" r="5.204"/>
		<g>
			<path fill="#FFFFFF" d="M570.025,30.064c-0.061,0-0.124-0.01-0.185-0.03c-0.305-0.102-0.47-0.432-0.368-0.738
				c0.028-0.083,0.704-2.045,2.737-3.019c0.29-0.139,0.638-0.016,0.777,0.274c0.139,0.29,0.016,0.638-0.274,0.777
				c-1.593,0.763-2.13,2.321-2.135,2.337C570.496,29.91,570.269,30.064,570.025,30.064z"/>
		</g>
		<circle fill="#FFFFFF" cx="573.709" cy="26.33" r="0.579"/>
		<g>
			<path fill="#FFFFFF" d="M552.504,30.064c-0.061,0-0.124-0.01-0.185-0.03c-0.305-0.102-0.47-0.432-0.368-0.738
				c0.028-0.083,0.704-2.045,2.737-3.019c0.29-0.139,0.638-0.016,0.777,0.274c0.139,0.29,0.016,0.638-0.274,0.777
				c-1.593,0.763-2.13,2.321-2.135,2.337C552.975,29.91,552.747,30.064,552.504,30.064z"/>
		</g>
		<circle fill="#FFFFFF" cx="556.187" cy="26.33" r="0.579"/>
		<path fill="#722E00" d="M567.9,33.633c0,1.958-1.584,4.204-1.974,4.204c-0.623,0-1.974-2.245-1.974-4.204s0-2.888,1.974-2.888
			C567.9,30.745,567.9,31.675,567.9,33.633z"/>
		<path d="M567.647,33.649c0,1.737-1.405,3.728-1.75,3.728c-0.553,0-1.75-1.991-1.75-3.728s0-2.561,1.75-2.561
			S567.647,31.913,567.647,33.649z"/>
		<path fill="#722E00" d="M568.206,33.633c0,1.958-1.584,4.204-1.974,4.204c-0.623,0-1.974-2.245-1.974-4.204s0-2.888,1.974-2.888
			C568.206,30.745,568.206,31.675,568.206,33.633z"/>
		<g>
			<path fill="#722E00" d="M546.368,31.111c-0.017-1.034-1.21-1.602-2.021-0.961c-2.957,2.338-8.297,7.433-3.884,10.209
				C545.767,43.696,546.429,34.959,546.368,31.111z"/>
		</g>
		<g>
			<path fill="#722E00" d="M586.185,31.111c0.017-1.034,1.21-1.602,2.021-0.961c2.957,2.338,8.297,7.433,3.884,10.209
				C586.786,43.696,586.124,34.959,586.185,31.111z"/>
		</g>
	</g>
</g>
</svg>